<?xml version="1.0" encoding="UTF-8" standalone="no"?>
<!DOCTYPE svg PUBLIC "-//W3C//DTD SVG 1.1//EN" "http://www.w3.org/Graphics/SVG/1.1/DTD/svg11.dtd">
<svg width="100%" height="100%" viewBox="0 0 271 271" version="1.1" xmlns="http://www.w3.org/2000/svg" xmlns:xlink="http://www.w3.org/1999/xlink" xml:space="preserve" xmlns:serif="http://www.serif.com/" style="fill-rule:evenodd;clip-rule:evenodd;stroke-linejoin:round;stroke-miterlimit:2;">
    <g id="Clock" transform="matrix(0.792405,0,0,0.792405,-359.017,-356.926)">
        <g transform="matrix(1.94583,0,0,2.70703,289.057,-698.991)">
            <ellipse cx="172.074" cy="487.706" rx="87.783" ry="63.099" style="fill:rgb(6,137,159);"/>
        </g>
        <g id="ClockHands" transform="matrix(5.55356,0,4.55513e-16,5.58577,315.147,806.286)">
            <path d="M55.713,-57.681C54.411,-57.681 53.296,-57.226 52.368,-56.314C51.44,-55.403 50.977,-54.296 50.977,-52.994L50.977,-33.545C50.977,-32.406 51.384,-31.299 52.197,-30.225L59.863,-20.117C60.775,-18.913 61.882,-18.205 63.184,-17.993C64.486,-17.782 65.674,-18.083 66.748,-18.897C67.822,-19.71 68.416,-20.785 68.53,-22.119C68.644,-23.454 68.311,-24.626 67.529,-25.635L60.417,-35.055L60.4,-52.994C60.4,-54.296 59.945,-55.403 59.033,-56.314C58.122,-57.226 57.015,-57.681 55.713,-57.681Z" style="fill:white;fill-rule:nonzero;"/>
        </g>
    </g>
</svg>
