<?xml version="1.0" encoding="UTF-8" standalone="no"?>
<!DOCTYPE svg PUBLIC "-//W3C//DTD SVG 1.1//EN" "http://www.w3.org/Graphics/SVG/1.1/DTD/svg11.dtd">
<svg width="21" height="21" viewBox="0 0 21 21" version="1.1" xmlns="http://www.w3.org/2000/svg" xmlns:xlink="http://www.w3.org/1999/xlink" xml:space="preserve" xmlns:serif="http://www.serif.com/" style="fill-rule:evenodd;clip-rule:evenodd;stroke-linejoin:round;stroke-miterlimit:2;">
    <g transform="matrix(1.03809,0,0,1.0382,-0.392093,-0.397033)">
        <path d="M8.348,10.473L1.035,17.785C0.45,18.37 0.449,19.321 1.035,19.906C1.62,20.491 2.571,20.492 3.156,19.906L10.47,12.595L17.782,19.907C18.368,20.493 19.318,20.493 19.904,19.907C20.489,19.322 20.489,18.371 19.904,17.786L12.591,10.474L19.905,3.162C20.49,2.577 20.49,1.626 19.905,1.041C19.319,0.455 18.369,0.455 17.783,1.041L10.47,8.352L3.157,1.04C2.572,0.454 1.621,0.454 1.036,1.04C0.451,1.625 0.451,2.576 1.036,3.161L8.348,10.473Z" style="fill:white;"/>
    </g>
</svg>
