<?xml version="1.0" encoding="UTF-8" standalone="no"?>
<!DOCTYPE svg PUBLIC "-//W3C//DTD SVG 1.1//EN" "http://www.w3.org/Graphics/SVG/1.1/DTD/svg11.dtd">
<svg width="16" height="15%" viewBox="0 0 16 15" version="1.1" xmlns="http://www.w3.org/2000/svg" xmlns:xlink="http://www.w3.org/1999/xlink" xml:space="preserve" xmlns:serif="http://www.serif.com/" style="fill-rule:evenodd;clip-rule:evenodd;stroke-linejoin:round;stroke-miterlimit:2;">
    <g transform="matrix(1,0,0,1,-7,-5)">
        <g transform="matrix(1,0,0,1,-0.611844,0.947526)">
            <path d="M23.598,5.551C23.598,4.724 22.927,4.052 22.1,4.052L9.11,4.052C8.283,4.052 7.612,4.724 7.612,5.551C7.612,6.378 8.283,7.05 9.11,7.05L22.1,7.05C22.927,7.05 23.598,6.378 23.598,5.551Z"/>
        </g>
        <g transform="matrix(1,0,0,1,-0.611844,12.9475)">
            <path d="M23.598,5.551C23.598,4.724 22.927,4.052 22.1,4.052L9.11,4.052C8.283,4.052 7.612,4.724 7.612,5.551C7.612,6.378 8.283,7.05 9.11,7.05L22.1,7.05C22.927,7.05 23.598,6.378 23.598,5.551Z"/>
        </g>
        <g transform="matrix(1,0,0,1,-0.611844,6.98478)">
            <path d="M23.598,5.551C23.598,4.724 22.927,4.052 22.1,4.052L9.11,4.052C8.283,4.052 7.612,4.724 7.612,5.551C7.612,6.378 8.283,7.05 9.11,7.05L22.1,7.05C22.927,7.05 23.598,6.378 23.598,5.551Z"/>
        </g>
    </g>
</svg>
